<svg xmlns="http://www.w3.org/2000/svg" width="16" height="16" fill="none">
  <mask id="a" width="14" height="14" x="1" y="1" maskUnits="userSpaceOnUse" style="mask-type:luminance">
    <path fill="#fff" stroke="#fff" stroke-linecap="round" stroke-linejoin="round" d="M13 2H3c-.5523 0-1 .4477-1 1v10c0 .5523.4477 1 1 1h10c.5523 0 1-.4477 1-1V3c0-.5523-.4477-1-1-1Z"/>
    <path stroke="#000" stroke-linecap="round" stroke-linejoin="round" d="M7 5.6667H4.3334v4.6666h2.5M4.3334 8h2.5m1.8333-1.6667v4-2.1666a1.5 1.5 0 1 1 3 0v2.1666"/>
  </mask>
  <g mask="url(#a)">
    <path fill="url(#b)" d="M0 0h16v16H0V0Z"/>
  </g>
  <defs>
    <linearGradient id="b" x1="-.4268" x2="21.9654" y1="7.3179" y2="5.1994" gradientUnits="userSpaceOnUse">
      <stop stop-color="#4DC274"/>
      <stop offset="1" stop-color="#BEE8CC"/>
    </linearGradient>
  </defs>
</svg>
